<svg viewBox="0 0 520 300" xmlns="http://www.w3.org/2000/svg" font-family="Helvetica, Arial, sans-serif">
  <!-- Redrawn after Groves, "Principles of GNSS, Inertial, and Multisensor Integrated Navigation Systems", Fig. 5.9 -->

  <!-- Down arrow: gravity direction -->
  <line x1="90" y1="60" x2="90" y2="190" stroke="#333333" stroke-width="2"/>
  <polygon points="90,190 84,176 96,176" fill="#333333"/>
  <text x="65" y="215" font-size="14" fill="#333333">Down</text>

  <!-- Up arrow: sensed specific force f_ib^b = -g^b -->
  <line x1="150" y1="190" x2="150" y2="60" stroke="#2980b9" stroke-width="2"/>
  <polygon points="150,60 156,74 144,74" fill="#2980b9"/>
  <text x="160" y="72" font-size="14" fill="#2980b9" font-style="italic">f<tspan dy="-4" font-size="10">b</tspan><tspan dy="8" font-size="10">ib</tspan><tspan dy="-4"> = -g</tspan><tspan dy="-4" font-size="10">b</tspan></text>

  <!-- Body/IMU triad, drawn as a tetrahedral "caltrop" icon matching Fig. 5.9's perspective -->
  <g transform="translate(340,160)">
    <!-- x^b: right, slightly up -->
    <line x1="0" y1="0" x2="87" y2="-35" stroke="#333333" stroke-width="2"/>
    <polygon points="87,-35 76.25,-24.20 71.77,-35.34" fill="#333333"/>
    <text x="93" y="-38" font-size="14" fill="#333333" font-style="italic">x<tspan dy="-4" font-size="10">b</tspan></text>

    <!-- y^b: down and to the right -->
    <line x1="0" y1="0" x2="38" y2="21" stroke="#333333" stroke-width="2"/>
    <polygon points="38,21 22.85,19.48 28.65,8.98" fill="#333333"/>
    <text x="44" y="30" font-size="14" fill="#333333" font-style="italic">y<tspan dy="-4" font-size="10">b</tspan></text>

    <!-- z^b: down and slightly left (mostly vertical) -->
    <line x1="0" y1="0" x2="-17" y2="49" stroke="#333333" stroke-width="2"/>
    <polygon points="-17,49 -18.08,33.80 -6.74,37.74" fill="#333333"/>
    <text x="-38" y="66" font-size="14" fill="#333333" font-style="italic">z<tspan dy="-4" font-size="10">b</tspan></text>

    <!-- unlabeled structural lines completing the tripod's 3D look -->
    <line x1="0" y1="0" x2="-25" y2="-38" stroke="#333333" stroke-width="2"/>
    <line x1="0" y1="0" x2="-40" y2="-14" stroke="#333333" stroke-width="2"/>
  </g>

  <text x="40" y="255" font-size="13" fill="#555555">When stationary, the accelerometers sense only the reaction to gravity: roll and pitch</text>
  <text x="40" y="272" font-size="13" fill="#555555">follow from the direction of specific force in the body frame (heading is not observable this way).</text>
</svg>
